<svg xmlns="http://www.w3.org/2000/svg" width="1366" height="948" viewBox="0 0 1366.75 948.52">
  <title>search_outline I_black</title>
  <g>
    <defs></defs>
    <g id="1723409120507-3283081_Layer_2" data-name="Layer 2">
      <g id="1723409120507-3283081_outline">
        <g id="1723409120507-3283081_search">
          <g id="1723409120507-3283081_text_II" data-name="text II">
            <rect class="cls-1" x="114.47" y="478.33" width="199.94" height="93.86" rx="17.66" fill="none" stroke="#ffffff" stroke-linecap="round" stroke-linejoin="round" stroke-width="6px"></rect>
            <path class="cls-1" d="M149.07 501.24L285.08 501.24" fill="none" stroke="#ffffff" stroke-linecap="round" stroke-linejoin="round" stroke-width="6px"></path>
            <path class="cls-1" d="M149.07 516.36L255.83 516.36" fill="none" stroke="#ffffff" stroke-linecap="round" stroke-linejoin="round" stroke-width="6px"></path>
            <path class="cls-1" d="M149.07 533.15L285.08 533.15" fill="none" stroke="#ffffff" stroke-linecap="round" stroke-linejoin="round" stroke-width="6px"></path>
            <path class="cls-1" d="M149.07 548.27L255.83 548.27" fill="none" stroke="#ffffff" stroke-linecap="round" stroke-linejoin="round" stroke-width="6px"></path>
            <circle class="cls-2" cx="120.4" cy="490.38" r="21.51" fill="#ffffff"></circle>
          </g>
          <g id="1723409120507-3283081_screen">
            <path class="cls-2" d="M593.6,622.6H572.08V604.68H593.6a6.1,6.1,0,0,1,6.1,6.1v5.72A6.1,6.1,0,0,1,593.6,622.6Z" fill="#ffffff"></path>
            <rect class="cls-2" x="810.06" y="604.68" width="63" height="17.92" rx="6.1" fill="#ffffff"></rect>
            <rect class="cls-2" x="614.71" y="604.68" width="178.79" height="17.92" rx="6.1" fill="#ffffff"></rect>
            <path class="cls-1" d="M872.43,588.66H573.14c-.44,9.15-.6,17.8-.34,26,.14,4.16,1,12.71,2.32,24.45H872.43a15,15,0,0,0,15-15V603.64A15,15,0,0,0,872.43,588.66Z" fill="none" stroke="#ffffff" stroke-linecap="round" stroke-linejoin="round" stroke-width="6px"></path>
            <g id="1723409120507-3283081_screen_shape" data-name="screen shape">
              <g id="1723409120507-3283081_lines">
                <path id="1723409120507-3283081_screen-2" data-name="screen" class="cls-1" d="M247.7 667.83L247.7 572.63" fill="none" stroke="#ffffff" stroke-linecap="round" stroke-linejoin="round" stroke-width="6px"></path>
                <path id="1723409120507-3283081_screen-3" data-name="screen" class="cls-1" d="M420.35,798.94H269.57c-12.08,0-21.87-9.14-21.87-20.42v-12" fill="none" stroke="#ffffff" stroke-linecap="round" stroke-linejoin="round" stroke-width="6px"></path>
                <path id="1723409120507-3283081_screen-4" data-name="screen" class="cls-1" d="M719.12 798.94L597.53 798.94" fill="none" stroke="#ffffff" stroke-linecap="round" stroke-linejoin="round" stroke-width="6px"></path>
                <path id="1723409120507-3283081_screen-5" data-name="screen" class="cls-1" d="M1127.56,641V778.52c0,11.28-9.79,20.42-21.87,20.42H994.39" fill="none" stroke="#ffffff" stroke-linecap="round" stroke-linejoin="round" stroke-width="6px"></path>
                <path id="1723409120507-3283081_screen-6" data-name="screen" class="cls-1" d="M247.7 477.42L247.7 361.72 1127.56 361.72 1127.56 425.3" fill="none" stroke="#ffffff" stroke-linecap="round" stroke-linejoin="round" stroke-width="6px"></path>
              </g>
              <g id="1723409120507-3283081_shape">
                <path class="cls-2" d="M699.27,263.11H638.71a30,30,0,0,1,5.68,5.79,1.33,1.33,0,0,1,.14.19l26.8,42.41h36.39a3,3,0,0,1-.93-2.16V270C706.79,266.2,703.42,263.11,699.27,263.11Zm-12.39,26.28h-4.36l0,4.36a3,3,0,0,1-3,3h0a3,3,0,0,1-3-3l0-4.31h-4.31a3,3,0,1,1,0-6h4.36l0-4.36a3,3,0,0,1,3-3h0a3,3,0,0,1,3,3l0,4.31h4.31a3,3,0,0,1,0,6Z" fill="#ffffff"></path>
                <path class="cls-2" d="M1108.89,241.18l-842.75,1.07c-12.17,0-22,10.45-22,23.34l.46,46.6,148.22-.68,26.81-42.42a1.27,1.27,0,0,1,.13-.19c5.47-7.31,13.8-11.67,22.27-11.67H621.08a2.9,2.9,0,0,1,.79-.12h77.4c7.45,0,13.52,5.78,13.52,12.88v39.35a3,3,0,0,1-.93,2.16h419v6H669.68a3,3,0,0,1-2.54-1.39L639.52,272.4c-4.34-5.74-10.84-9.17-17.39-9.17H442c-6.56,0-13.05,3.43-17.4,9.17L397,316.11a3,3,0,0,1-2.52,1.39l-149.84.69.5,50.8h885.8V264.52C1130.92,251.63,1121.05,241.18,1108.89,241.18ZM280.78,291.93a13.43,13.43,0,1,1,13.42-13.42A13.42,13.42,0,0,1,280.78,291.93Zm44.15,0a13.43,13.43,0,1,1,13.43-13.42A13.42,13.42,0,0,1,324.93,291.93Zm44.16,0a13.43,13.43,0,1,1,13.42-13.42A13.42,13.42,0,0,1,369.09,291.93Zm715.05-8.9-5.69,4.16.36,0a3,3,0,0,1-.32,6l-.32,0-7.5-.8-.35,0a3,3,0,0,1-2.43-1.23s0,0,0,0l0,0a3,3,0,0,1-.53-2.35l1.54-7.9a3,3,0,0,1,5.89,1.16l-.1.53,6-4.36a3,3,0,1,1,3.54,4.84Zm21.11-15.49-1.51,7.41a3,3,0,0,1-2.94,2.4,3.23,3.23,0,0,1-.61-.06,3,3,0,0,1-2.33-3.54l.07-.35-5.69,4.16a3,3,0,1,1-3.54-4.85l6-4.36-.54-.06a3,3,0,0,1,.69-6l8,.92a3,3,0,0,1,2.09,1.22l0,0,0,0A3,3,0,0,1,1105.25,267.54Zm-499.49,19.8a3,3,0,1,1,4-4.52l4.17,3.64,4.24-3.55a3,3,0,0,1,3.85,4.6l-3.52,2.94,3.46,3A3,3,0,0,1,618,298l-4.16-3.64-4.25,3.55a3,3,0,0,1-3.85-4.6l3.52-2.94ZM312.5,346.19H295.41l4.34,3.94a3,3,0,0,1-4,4.44l-9.54-8.68a3,3,0,0,1-1.72-2.7s0-.06,0-.09,0-.06,0-.08a3,3,0,0,1,1-2.22l9.91-9.16a3,3,0,0,1,4.07,4.41l-4.48,4.14H312.5a3,3,0,0,1,0,6Zm47.22-3a3,3,0,0,1-1.72,2.7l-9.54,8.68a3,3,0,0,1-2,.78,3,3,0,0,1-2-5.22l4.34-3.94H331.67a3,3,0,0,1,0-6h17.59l-4.48-4.14a3,3,0,0,1,4.07-4.41l9.91,9.16a3,3,0,0,1,1,2.22s0,.05,0,.08S359.72,343.16,359.72,343.19ZM995.52,349a5,5,0,0,1-5,5H398.94a5,5,0,0,1-5-5v-9.38a5,5,0,0,1,5-5H990.53a5,5,0,0,1,5,5Zm51.93-8.76-5.21,3,2,6.29a3,3,0,0,1-4.35,3.53l-5.63-3.25-5.74,4.17a3,3,0,0,1-4.62-3.35l2.12-6.53-5.55-4a3,3,0,0,1,1.76-5.42h6.87l2.12-6.53a3,3,0,0,1,5.7,0l2.13,6.53H1046a3,3,0,0,1,1.5,5.6Zm47.76,14.32h-16.83a3,3,0,0,1,0-6h16.83a3,3,0,0,1,0,6Zm0-9.32h-16.83a3,3,0,0,1,0-6h16.83a3,3,0,0,1,0,6Zm0-9.31h-16.83a3,3,0,0,1,0-6h16.83a3,3,0,0,1,0,6Z" fill="#ffffff"></path>
              </g>
            </g>
            <path class="cls-2" d="M870.32,479.77H581.27c-.39,4.33-.73,8.66-1,12.94-1.61,27.11-3.9,50.65-5.55,71.59H870.32A17.35,17.35,0,0,0,887.67,547V497.13A17.35,17.35,0,0,0,870.32,479.77Z" fill="#ffffff"></path>
          </g>
          <g id="1723409120507-3283081_layout_II" data-name="layout II">
            <rect class="cls-1" x="719.26" y="723.22" width="275.36" height="142.18" rx="20" fill="none" stroke="#ffffff" stroke-linecap="round" stroke-linejoin="round" stroke-width="6px"></rect>
            <circle class="cls-1" cx="786.54" cy="782.83" r="28.47" fill="none" stroke="#ffffff" stroke-linecap="round" stroke-linejoin="round" stroke-width="6px"></circle>
            <rect class="cls-1" x="903.99" y="811.93" width="48.54" height="16.52" rx="6.46" fill="none" stroke="#ffffff" stroke-linecap="round" stroke-linejoin="round" stroke-width="6px"></rect>
            <circle class="cls-2" cx="725.31" cy="730.23" r="21.51" fill="#ffffff"></circle>
            <path class="cls-1" d="M833.62 778.37L949.68 778.7" fill="none" stroke="#ffffff" stroke-linecap="round" stroke-linejoin="round" stroke-width="6px"></path>
            <path class="cls-1" d="M834.9 793.02L950.96 793.35" fill="none" stroke="#ffffff" stroke-linecap="round" stroke-linejoin="round" stroke-width="6px"></path>
          </g>
          <g id="1723409120507-3283081_layout">
            <rect class="cls-1" x="984.01" y="425.59" width="250.58" height="215.12" rx="21.69" transform="rotate(.15 1138.996 548.55)" fill="none" stroke="#ffffff" stroke-linecap="round" stroke-linejoin="round" stroke-width="6px"></rect>
            <rect class="cls-1" x="1140.97" y="531.51" width="55.59" height="56.39" rx="5.57" transform="translate(1.51 -3.14)" fill="none" stroke="#ffffff" stroke-linecap="round" stroke-linejoin="round" stroke-width="6px"></rect>
            <rect class="cls-1" x="1029.26" y="472.23" width="161.62" height="39.68" rx="8.45" transform="rotate(.15 1138.94 506.532)" fill="none" stroke="#ffffff" stroke-linecap="round" stroke-linejoin="round" stroke-width="6px"></rect>
            <path class="cls-1" d="M1031.29 582.89L1122.81 583.15" fill="none" stroke="#ffffff" stroke-linecap="round" stroke-linejoin="round" stroke-width="6px"></path>
            <path class="cls-1" d="M1031.35 559.01L1122.87 559.27" fill="none" stroke="#ffffff" stroke-linecap="round" stroke-linejoin="round" stroke-width="6px"></path>
            <path class="cls-1" d="M1031.42 535.13L1122.94 535.4" fill="none" stroke="#ffffff" stroke-linecap="round" stroke-linejoin="round" stroke-width="6px"></path>
            <circle class="cls-2" cx="994.25" cy="431.68" r="21.51" fill="#ffffff"></circle>
          </g>
          <g id="1723409120507-3283081_text">
            <rect class="cls-1" x="14.87" y="667.57" width="281.74" height="98.27" rx="14.98" fill="none" stroke="#ffffff" stroke-linecap="round" stroke-linejoin="round" stroke-width="6px"></rect>
            <path class="cls-1" d="M52.57 705.37L254.44 705.37" fill="none" stroke="#ffffff" stroke-linecap="round" stroke-linejoin="round" stroke-width="6px"></path>
            <path class="cls-1" d="M52.57 727.06L230.8 727.06" fill="none" stroke="#ffffff" stroke-linecap="round" stroke-linejoin="round" stroke-width="6px"></path>
            <circle class="cls-2" cx="21.51" cy="671.24" r="21.51" fill="#ffffff"></circle>
          </g>
          <g id="1723409120507-3283081_hand">
            <path id="1723409120507-3283081_magnifier" class="cls-3" d="M823,184.43C813.63,73.63,716.23-8.62,605.43.72s-193,106.74-183.7,217.54a201,201,0,0,0,96,155.1l-19.16,31.3c15.15,12.06,27.76,26.35,34.71,34.86l5.82,5.71c0-9.44,1.62-53.83,28.93-57.37,9.21-1.2,14.25,3.19,16.73,11.3a201.08,201.08,0,0,0,54.51,2.8C750.07,392.62,832.31,295.23,823,184.43ZM635.46,356.79A156,156,0,1,1,777.8,188.24,156,156,0,0,1,635.46,356.79Z" fill="#a5a4bd"></path>
            <path id="1723409120507-3283081_hand-2" data-name="hand" class="cls-1" d="M539.12,447s-1.67-55.17,28.91-59.13,15.29,53.64,12.26,104.85-8.51,89.69-7.49,122,44.46,329.42,44.46,329.42l-198.49.65L421,661.11S332.11,597.4,335.22,505c6.1-74.57,58.75-109.07,104.43-120.6S539.12,447,539.12,447Z" fill="none" stroke="#ffffff" stroke-linecap="round" stroke-linejoin="round" stroke-width="6px"></path>
            <path id="1723409120507-3283081_magnifier_handle" data-name="magnifier handle" class="cls-3" d="M325.16,658.72c-4.2,6.8,1.93,18.21,13.7,25.48L345,688c11.77,7.27,24.71,7.66,28.91.86l51-84.13-45.33-34.26Z" fill="#a5a4bd"></path>
            <g id="1723409120507-3283081_fingers">
              <path class="cls-1" d="M370.33,564.06s62.91,50.22,87,55.36,41.48-.51,44.79-16.58-49.65-63.48-98.23-82.92" fill="none" stroke="#ffffff" stroke-linecap="round" stroke-linejoin="round" stroke-width="6px"></path>
              <path class="cls-1" d="M417.74,467.88s62.17,28.93,95,67.66c31.5,34.67,15.46,75.63-12.14,59.42" fill="none" stroke="#ffffff" stroke-linecap="round" stroke-linejoin="round" stroke-width="6px"></path>
              <path class="cls-1" d="M425.3,423.4S502.84,448.08,534.2,503,529,566,529,566" fill="none" stroke="#ffffff" stroke-linecap="round" stroke-linejoin="round" stroke-width="6px"></path>
              <path class="cls-1" d="M538.83,445.11c35.71,64.34,4,76.77,4,76.77" fill="none" stroke="#ffffff" stroke-linecap="round" stroke-linejoin="round" stroke-width="6px"></path>
            </g>
          </g>
          <path id="1723409120507-3283081_line" class="cls-1" d="M4.8 945.52L1363.75 945.52" fill="none" stroke="#ffffff" stroke-linecap="round" stroke-linejoin="round" stroke-width="6px"></path>
        </g>
      </g>
    </g>
  </g>
</svg>